<?xml version="1.0" standalone="no"?>
<!DOCTYPE svg PUBLIC "-//W3C//DTD SVG 20010904//EN"
 "http://www.w3.org/TR/2001/REC-SVG-20010904/DTD/svg10.dtd">
<svg version="1.0" xmlns="http://www.w3.org/2000/svg"
 width="2481.000000pt" height="1221.000000pt" viewBox="0 0 2481.000000 1221.000000"
 preserveAspectRatio="xMidYMid meet">

<g transform="translate(0.000000,1221.000000) scale(0.100000,-0.100000)"
fill="#000000" stroke="none">
<path d="M5625 10334 c-255 -37 -357 -62 -526 -129 -430 -170 -863 -544 -1187
-1027 -340 -506 -480 -1078 -387 -1582 16 -88 36 -126 65 -126 27 0 26 34 -2
147 -19 75 -22 115 -22 278 1 533 170 987 540 1448 324 405 740 720 1129 857
347 122 761 129 1047 19 88 -34 231 -125 225 -142 -2 -7 -57 -24 -123 -39
-543 -121 -1049 -416 -1533 -891 -648 -637 -942 -1306 -870 -1979 41 -384 193
-595 470 -654 101 -22 271 -13 399 19 387 99 791 396 1215 892 376 440 619
881 729 1323 50 201 61 294 61 517 -1 330 -40 494 -162 674 -35 51 -61 96 -58
100 4 3 73 6 153 6 169 -1 256 -20 376 -83 279 -146 374 -490 280 -1007 -69
-382 -274 -806 -596 -1237 -538 -718 -1194 -1267 -1788 -1497 -47 -18 -95 -37
-108 -42 -29 -11 -191 -57 -262 -74 l-55 -14 -70 46 c-86 57 -171 96 -272 125
-66 19 -102 23 -233 23 -176 0 -230 -13 -276 -68 -50 -59 -13 -137 84 -180 88
-40 188 -50 402 -43 170 6 219 11 306 31 28 6 36 2 84 -47 105 -106 163 -224
195 -393 20 -104 16 -335 -7 -419 l-13 -49 -370 -122 c-369 -121 -429 -142
-685 -237 -697 -257 -1105 -450 -1472 -695 -257 -171 -474 -365 -611 -548
-169 -226 -256 -497 -236 -734 13 -148 98 -266 241 -335 99 -48 188 -60 363
-52 806 40 1486 369 2068 1003 452 492 692 976 763 1538 9 72 19 133 23 137 3
4 62 23 131 43 765 222 1540 617 2030 1035 41 35 142 130 224 210 82 80 146
138 143 130 -66 -175 -92 -314 -85 -458 7 -141 41 -213 122 -254 127 -65 355
-3 568 153 84 63 302 274 394 383 l50 59 53 -13 c83 -20 193 -9 279 27 39 17
72 30 72 29 0 -1 -9 -28 -20 -59 -78 -221 -64 -438 35 -533 64 -62 187 -84
258 -48 98 51 393 333 831 794 462 486 509 530 780 729 129 95 169 116 135 74
-22 -27 -464 -557 -549 -658 -76 -90 -162 -221 -215 -325 -103 -203 -135 -478
-67 -569 38 -51 69 -66 137 -65 52 0 77 7 147 41 144 69 248 151 453 357 105
105 221 228 260 273 38 45 71 80 73 78 2 -2 -9 -41 -26 -87 -42 -116 -55 -211
-50 -368 4 -152 17 -191 82 -248 119 -105 398 -34 644 164 79 64 272 256 353
353 l46 54 46 -11 c72 -19 164 -14 238 11 150 51 263 147 463 392 401 493 606
685 729 685 103 0 128 -91 63 -226 -38 -80 -171 -279 -277 -416 -64 -81 -640
-803 -756 -946 -24 -29 -43 -56 -43 -61 0 -5 19 -5 43 0 61 12 177 10 217 -4
l35 -12 95 116 c114 140 264 325 544 674 308 383 400 486 571 643 164 151 291
221 411 230 63 4 73 2 98 -19 45 -39 46 -93 4 -181 -40 -84 -131 -220 -260
-392 -147 -194 -810 -1040 -822 -1048 -21 -14 0 -16 54 -6 55 10 196 6 236 -7
19 -6 51 32 255 297 494 643 688 877 866 1048 170 164 285 244 402 280 162 51
254 2 222 -118 -18 -66 -83 -154 -248 -333 -464 -505 -478 -521 -542 -661 -51
-109 -73 -208 -73 -318 0 -74 4 -98 23 -137 75 -150 270 -128 520 58 86 64
360 334 459 452 54 65 78 83 66 51 -46 -120 -70 -365 -47 -477 25 -117 104
-182 221 -181 143 2 277 86 545 342 104 100 191 180 193 178 2 -2 -7 -37 -20
-77 -30 -97 -33 -295 -5 -346 46 -86 128 -116 237 -89 85 21 169 63 255 128
73 55 295 270 383 372 29 33 54 58 56 55 2 -2 -3 -33 -12 -69 -19 -79 -22
-296 -4 -356 30 -102 88 -147 190 -147 112 -1 137 17 462 344 246 248 299 296
385 352 141 90 337 189 350 175 2 -2 -16 -34 -40 -71 -102 -151 -164 -311
-185 -476 -25 -193 20 -299 134 -316 55 -9 164 22 244 67 188 107 478 387 782
757 87 105 92 115 75 127 -10 7 -21 11 -26 9 -4 -3 -51 -59 -104 -125 -224
-278 -480 -544 -630 -658 -105 -79 -204 -125 -280 -130 -57 -4 -65 -2 -95 25
-48 43 -52 106 -12 194 32 73 103 181 197 304 34 44 85 112 115 150 72 95 119
154 153 190 15 16 62 72 105 124 204 248 296 358 397 475 98 114 133 160 135
176 0 3 -60 3 -133 0 l-134 -5 -107 -123 c-60 -68 -110 -121 -112 -119 -3 2 1
17 7 33 20 51 15 165 -10 216 -32 68 -70 82 -187 75 -189 -13 -390 -113 -570
-284 -164 -155 -235 -320 -205 -479 13 -72 38 -129 67 -155 28 -24 80 -49 104
-49 35 0 22 -15 -57 -65 -82 -51 -298 -260 -541 -521 -127 -138 -197 -194
-242 -194 -66 0 -134 43 -168 105 -26 47 -23 211 5 300 38 119 107 228 213
334 100 101 120 129 120 166 0 56 -100 77 -156 33 -52 -42 -99 -99 -140 -174
-79 -144 -391 -487 -551 -608 -121 -91 -184 -120 -269 -124 -64 -4 -73 -2
-101 22 -18 15 -33 40 -37 60 -8 43 10 130 38 181 45 82 659 893 948 1252 54
67 98 123 98 125 0 2 -65 3 -145 3 l-146 0 -62 -82 c-34 -45 -68 -82 -74 -83
-8 0 -13 13 -13 33 0 41 -30 106 -61 133 -53 47 -127 54 -275 29 -394 -69
-784 -352 -1169 -850 -348 -448 -643 -730 -839 -804 -68 -25 -162 -28 -193 -6
-49 35 -53 126 -9 213 40 80 92 140 370 430 301 315 357 383 426 527 56 117
72 178 72 280 0 137 -60 208 -188 221 -176 19 -397 -116 -706 -429 -82 -82
-148 -146 -148 -143 0 4 13 37 28 74 41 96 56 165 56 262 0 71 -4 94 -24 135
-57 114 -171 133 -336 56 -130 -61 -320 -210 -529 -416 -64 -64 -119 -115
-121 -113 -2 2 10 37 26 77 38 94 53 183 48 285 -5 106 -33 161 -98 194 -57
28 -110 28 -183 -2 -144 -60 -267 -176 -537 -510 -106 -131 -217 -266 -247
-299 -142 -160 -278 -246 -402 -255 -82 -5 -141 4 -141 22 0 7 38 70 85 140
105 154 234 402 269 515 53 169 53 288 0 358 -38 51 -71 63 -167 63 -187 0
-416 -92 -632 -252 -137 -103 -375 -334 -462 -450 -36 -49 -72 -88 -79 -88 -7
0 -70 -70 -140 -156 -223 -272 -482 -536 -644 -655 -77 -57 -162 -92 -236 -97
-64 -4 -73 -2 -100 21 -26 23 -29 31 -29 89 0 81 36 156 152 315 134 184 488
633 657 833 130 153 299 354 312 370 11 13 -6 15 -149 14 l-162 -1 -73 -37
c-187 -94 -298 -193 -924 -819 -706 -707 -802 -790 -906 -790 -83 0 -132 63
-140 179 -6 100 12 179 68 289 74 145 164 256 260 320 61 41 90 87 90 141 0
38 -3 44 -25 50 -36 9 -80 -2 -121 -29 -53 -36 -131 -113 -174 -173 -49 -65
-85 -94 -175 -136 -58 -26 -85 -33 -155 -36 -64 -3 -90 0 -104 11 -19 14 -15
22 94 188 140 213 198 322 247 464 33 99 37 120 38 215 0 116 -13 153 -68 194
-25 19 -42 21 -145 20 -96 0 -132 -5 -204 -26 -165 -50 -356 -162 -531 -311
-99 -84 -269 -255 -317 -320 -19 -25 -42 -47 -50 -47 -8 0 -40 -33 -70 -72
-88 -115 -124 -155 -263 -296 -400 -406 -818 -673 -1532 -979 -246 -106 -648
-250 -798 -287 l-27 -6 6 157 c8 188 -4 300 -47 428 -34 102 -70 165 -142 248
-27 32 -47 60 -45 63 3 3 42 13 85 24 44 10 96 26 114 34 19 8 54 20 79 26 25
7 70 20 100 30 30 10 75 23 100 30 25 8 50 16 55 20 6 3 28 12 50 19 76 24
163 57 237 90 26 12 50 21 53 21 2 0 35 14 72 31 38 16 95 42 128 57 95 43
258 128 368 190 20 12 54 32 74 43 21 12 57 34 80 50 23 16 44 29 48 29 18 0
400 273 470 337 12 10 54 47 95 82 327 282 601 655 740 1006 59 147 83 233
125 430 16 72 35 290 35 395 0 507 -175 847 -515 1000 -168 76 -350 106 -579
97 l-138 -5 -61 44 c-198 146 -385 203 -687 209 -96 2 -188 1 -205 -1z m985
-361 c54 -61 112 -184 142 -298 32 -124 32 -338 0 -506 -76 -405 -271 -834
-609 -1342 -443 -664 -887 -1097 -1263 -1232 -322 -115 -584 -47 -691 180 -50
105 -62 176 -56 305 28 529 377 1199 999 1920 140 161 397 418 529 527 273
227 555 388 849 486 39 14 60 5 100 -40z m12845 -2507 c56 -56 54 -159 -6
-278 -121 -242 -339 -496 -489 -571 -91 -45 -180 -63 -237 -48 -61 17 -78 42
-78 115 1 51 7 75 42 146 70 145 275 409 401 518 65 56 153 114 197 130 17 6
56 11 88 11 48 1 62 -3 82 -23z m-10624 -31 c63 -33 72 -157 22 -305 -36 -106
-193 -390 -217 -390 -7 0 -21 7 -32 15 -27 21 -91 18 -140 -6 -58 -28 -85 -83
-86 -178 0 -54 4 -78 21 -106 11 -20 21 -41 21 -46 0 -32 -280 -336 -400 -434
-79 -65 -175 -123 -255 -156 -48 -19 -78 -24 -148 -24 l-88 0 -34 37 c-45 49
-52 100 -26 201 50 192 243 487 572 873 207 244 415 431 552 498 93 46 175 53
238 21z m3705 5 c74 -28 81 -195 14 -345 -59 -133 -126 -256 -181 -334 -16
-22 -18 -22 -47 -7 -36 18 -89 21 -129 5 -97 -36 -145 -192 -88 -284 13 -22
24 -47 25 -55 0 -24 -157 -206 -289 -332 -128 -123 -265 -222 -360 -260 -35
-14 -86 -23 -138 -26 -71 -3 -87 -1 -117 17 -48 30 -60 66 -53 159 6 83 38
172 104 291 170 306 600 826 849 1025 181 145 300 187 410 146z m4831 -23 c22
-22 28 -37 31 -90 7 -114 -40 -203 -246 -469 -376 -483 -669 -811 -835 -932
-189 -139 -345 -163 -407 -64 -18 28 -21 44 -16 103 16 230 210 545 574 927
260 274 440 425 597 503 104 51 117 54 208 51 58 -1 71 -5 94 -29z m-12582
-2470 c-211 -661 -685 -1267 -1432 -1829 -511 -384 -937 -593 -1299 -639 -188
-23 -330 5 -411 83 -87 84 -117 273 -74 453 147 600 1013 1195 2626 1800 246
93 599 214 607 209 3 -2 -4 -37 -17 -77z"/>
<path d="M14855 5495 c-102 -27 -258 -100 -277 -129 -9 -13 -11 -126 -2 -126
3 0 32 18 65 41 127 86 226 114 377 107 120 -6 179 -30 223 -91 38 -53 48 -91
54 -222 7 -145 7 -145 -63 -145 -139 0 -340 -46 -467 -106 -235 -111 -335
-350 -228 -545 60 -110 165 -171 308 -177 137 -6 260 33 388 124 26 19 52 34
57 34 6 0 10 -15 10 -32 0 -159 97 -170 298 -35 l62 42 0 53 0 54 -47 -35
c-56 -40 -126 -77 -147 -77 -9 0 -20 9 -26 19 -6 13 -10 182 -10 480 0 462 -4
530 -37 595 -43 84 -147 154 -263 176 -73 14 -215 11 -275 -5z m440 -686 c4
-12 4 -113 0 -225 l-7 -204 -55 -45 c-118 -97 -267 -146 -379 -126 -99 19
-167 64 -200 135 -82 175 61 376 317 447 66 18 196 37 261 38 49 1 58 -2 63
-20z"/>
<path d="M20434 5495 c-62 -13 -189 -60 -211 -77 -19 -15 -33 0 -33 38 l0 34
-65 0 -65 0 0 -814 c0 -448 -3 -817 -8 -819 -4 -3 -1854 -6 -4112 -8 l-4104
-3 -56 98 c-107 189 -280 392 -451 529 -256 207 -593 341 -948 376 -317 33
-862 -22 -1241 -125 -277 -75 -330 -96 -1220 -471 -363 -154 -982 -368 -1205
-418 -502 -112 -953 -4 -1303 313 -66 60 -85 73 -95 63 -9 -10 4 -27 63 -83
294 -273 687 -406 1087 -369 119 12 253 35 348 61 160 45 570 184 835 284 79
29 461 188 775 321 305 130 458 187 643 241 342 99 732 154 1092 154 261 0
404 -21 620 -93 396 -130 728 -400 952 -774 31 -51 59 -104 62 -119 l7 -27
4127 4 4127 4 3 -197 2 -198 65 0 65 0 0 184 c0 101 3 191 6 200 6 15 211 16
2221 16 2104 0 2214 1 2211 18 -3 16 -116 17 -2213 15 -1698 -1 -2211 1 -2217
10 -11 17 -10 299 1 316 7 10 26 6 97 -22 118 -47 206 -61 340 -55 257 12 465
146 574 373 55 113 75 206 73 345 -3 350 -203 608 -523 676 -81 17 -245 17
-326 -1z m274 -130 c195 -46 353 -205 407 -410 18 -69 20 -231 4 -307 -77
-364 -472 -530 -846 -353 -52 24 -74 40 -78 57 -3 13 -4 226 -3 473 l3 450 83
41 c45 23 101 46 125 51 64 16 234 15 305 -2z"/>
<path d="M21867 5493 c-32 -9 -104 -39 -160 -67 l-102 -51 -3 -67 c-2 -38 0
-68 3 -68 3 0 27 15 53 34 65 47 164 93 231 107 84 17 246 7 296 -18 56 -29
84 -59 108 -112 18 -39 21 -66 22 -181 l0 -135 -40 -2 c-372 -23 -630 -140
-720 -328 -26 -53 -29 -71 -30 -155 0 -113 21 -169 88 -238 86 -88 169 -117
310 -109 112 6 206 38 314 109 42 27 77 47 79 45 3 -2 9 -30 14 -62 5 -32 17
-66 26 -76 39 -43 145 -13 271 77 63 45 63 45 63 95 0 28 -3 48 -7 45 -5 -2
-38 -24 -75 -49 -65 -44 -122 -66 -136 -52 -4 4 -9 232 -12 508 l-5 502 -29
63 c-63 137 -196 203 -406 201 -52 -1 -121 -8 -153 -16z m451 -888 l2 -220
-57 -46 c-86 -69 -162 -108 -244 -125 -117 -24 -225 2 -294 71 -51 51 -69 99
-63 174 11 149 155 284 359 335 78 19 197 34 254 32 l40 -1 3 -220z"/>
<path d="M13095 5478 c-3 -7 -4 -314 -3 -683 l3 -670 68 -3 67 -3 0 621 0 620
415 0 415 0 2 -617 3 -618 68 -3 67 -3 0 686 0 685 -550 0 c-431 0 -552 -3
-555 -12z"/>
<path d="M17390 4805 l0 -685 53 0 53 0 450 564 c247 310 452 565 456 565 4 1
9 -252 10 -561 l3 -563 68 -3 67 -3 0 686 0 685 -54 0 -53 0 -129 -164 c-534
-679 -770 -974 -777 -973 -5 1 -8 250 -7 553 0 303 -2 558 -6 567 -5 13 -20
17 -70 17 l-64 0 0 -685z"/>
<path d="M18754 5476 c-3 -7 -4 -35 -2 -62 l3 -49 240 -5 240 -5 3 -617 2
-618 65 0 65 0 2 618 3 617 240 5 240 5 0 60 0 60 -548 3 c-459 2 -548 0 -553
-12z"/>
<path d="M16010 5003 c0 -581 -6 -619 -98 -716 -35 -36 -121 -77 -162 -77 -29
0 -33 -17 -14 -65 19 -52 32 -55 123 -29 108 30 184 107 232 234 43 112 48
183 49 608 l0 402 370 0 370 0 0 -615 0 -615 34 0 c18 0 48 -3 65 -6 l31 -6 0
681 0 681 -500 0 -500 0 0 -477z"/>
<path d="M16894 3234 c3 -9 6 -20 6 -25 0 -15 63 -49 90 -49 34 0 86 33 93 59
8 32 -14 37 -35 8 -27 -38 -90 -38 -114 -2 -18 28 -50 35 -40 9z"/>
<path d="M8668 3118 c-50 -13 -122 -78 -142 -129 -59 -146 -4 -314 119 -370
75 -34 185 -22 252 28 58 42 86 105 91 200 4 78 2 88 -26 146 -17 34 -45 73
-62 85 -64 48 -148 62 -232 40z m159 -59 c58 -28 94 -89 100 -172 12 -146 -58
-237 -183 -237 -127 0 -205 124 -174 276 10 49 20 66 55 101 24 23 54 43 67
46 53 10 94 6 135 -14z"/>
<path d="M11270 3121 c-120 -37 -175 -126 -168 -273 4 -103 34 -169 96 -212
35 -25 53 -30 119 -33 67 -4 84 -1 123 19 44 23 96 85 102 122 2 13 -5 21 -23
26 -24 7 -28 3 -48 -36 -30 -63 -71 -86 -146 -82 -105 6 -154 62 -163 188 -5
79 10 138 45 181 71 84 205 77 256 -12 17 -30 26 -37 42 -33 34 10 35 18 10
61 -44 73 -156 111 -245 84z"/>
<path d="M6216 3108 c8 -13 140 -204 156 -224 5 -8 -23 -54 -80 -130 -115
-155 -110 -144 -69 -144 31 0 38 7 108 105 41 57 77 104 81 105 3 0 39 -47 80
-105 70 -101 74 -105 110 -105 l37 0 -82 115 c-45 64 -88 123 -94 133 -11 15
-1 34 72 135 47 64 85 119 85 122 0 3 -13 5 -28 5 -24 0 -38 -14 -97 -95 -39
-52 -73 -95 -77 -95 -4 0 -38 43 -75 95 -62 88 -70 95 -101 95 -24 0 -31 -4
-26 -12z"/>
<path d="M6970 3112 c0 -5 45 -90 100 -190 99 -179 100 -182 87 -214 -20 -47
-43 -62 -89 -61 -35 2 -39 0 -36 -20 2 -18 10 -23 47 -25 34 -3 49 2 69 20 19
17 252 474 252 494 0 2 -11 4 -25 4 -30 0 -30 0 -108 -169 -34 -74 -67 -136
-73 -138 -5 -2 -46 65 -91 149 -70 132 -85 153 -107 156 -14 2 -26 -1 -26 -6z"/>
<path d="M7780 3016 c0 -195 -34 -348 -78 -354 -21 -3 -22 -8 -22 -93 0 -88 0
-89 25 -89 23 0 24 4 27 63 l3 62 155 3 c207 4 200 6 200 -69 0 -57 1 -60 23
-57 21 3 22 7 22 88 0 81 -1 85 -22 88 l-23 3 0 230 0 229 -155 0 -155 0 0
-104z m250 -151 l0 -205 -126 0 c-116 0 -126 1 -119 18 21 51 36 130 46 242 6
69 13 131 15 138 2 8 30 12 94 12 l90 0 0 -205z"/>
<path d="M9320 3095 c0 -21 5 -25 28 -25 36 0 54 -20 87 -93 14 -32 37 -69 51
-82 l25 -23 -43 -45 c-24 -24 -67 -83 -95 -130 l-53 -87 38 0 c37 0 39 2 97
96 62 100 103 144 136 144 18 0 19 -8 19 -120 l0 -120 35 0 35 0 0 120 c0 112
1 120 19 120 33 0 73 -43 135 -144 56 -90 62 -96 93 -96 18 0 33 3 33 6 0 19
-126 208 -153 229 l-32 24 27 28 c14 15 40 56 57 90 31 63 53 83 90 83 16 0
21 6 21 26 0 26 -2 26 -45 21 -60 -6 -80 -26 -124 -122 -27 -58 -45 -84 -65
-93 -54 -24 -55 -21 -58 101 l-3 112 -32 3 -33 3 0 -115 c0 -125 -1 -127 -54
-106 -18 7 -38 35 -71 99 -48 96 -75 121 -135 121 -25 0 -30 -4 -30 -25z"/>
<path d="M10340 2865 l0 -255 191 0 190 0 -3 23 c-3 22 -6 22 -161 25 l-158 3
3 92 3 92 143 3 c142 3 143 3 140 25 -3 21 -7 22 -145 25 l-143 3 0 84 0 85
155 0 155 0 0 25 0 25 -185 0 -185 0 0 -255z"/>
<path d="M11874 3105 c-11 -27 7 -35 86 -35 62 0 79 -3 84 -16 3 -9 6 -112 6
-230 l0 -215 28 3 27 3 2 210 c1 116 3 218 3 228 0 15 11 17 85 17 84 0 85 0
85 25 l0 25 -200 0 c-166 0 -202 -2 -206 -15z"/>
<path d="M12650 2865 l0 -255 135 0 c155 0 193 11 225 62 25 41 26 109 3 149
-10 16 -20 29 -23 29 -3 0 -14 7 -24 15 -19 15 -19 16 7 43 59 61 40 158 -37
193 -33 15 -66 19 -163 19 l-123 0 0 -255z m247 195 c45 -16 67 -76 43 -120
-14 -27 -64 -40 -151 -40 l-79 0 0 85 0 85 79 0 c43 0 92 -5 108 -10z m5 -220
c46 -13 68 -43 68 -91 0 -29 -7 -43 -31 -63 -28 -24 -38 -26 -130 -26 l-99 0
0 95 0 95 78 0 c42 0 94 -5 114 -10z"/>
<path d="M13435 3098 c-3 -13 -4 -126 -3 -253 l3 -230 188 -3 187 -2 0 25 0
25 -160 0 -161 0 3 93 3 92 143 3 142 3 0 24 0 25 -145 0 -146 0 3 83 3 82
153 3 152 3 0 24 0 25 -180 0 c-178 0 -180 0 -185 -22z"/>
<path d="M14220 2865 l0 -255 25 0 24 0 3 118 3 117 140 0 140 0 3 -117 3
-118 29 0 30 0 -2 253 -3 252 -27 3 -28 3 0 -105 0 -106 -145 0 -145 0 0 105
0 105 -25 0 -25 0 0 -255z"/>
<path d="M15040 2865 l0 -255 25 0 24 0 3 118 3 117 143 3 142 3 0 -121 0
-120 30 0 30 0 -2 253 -3 252 -27 3 -28 3 0 -106 0 -106 -142 3 -143 3 -3 103
c-3 101 -3 102 -27 102 l-25 0 0 -255z"/>
<path d="M15860 2865 l0 -255 138 0 c111 0 144 3 171 18 66 33 91 133 51 199
-30 50 -70 65 -192 71 l-108 5 0 108 0 109 -30 0 -30 0 0 -255z m293 -55 c36
-40 36 -83 -1 -120 -23 -23 -41 -29 -93 -35 -35 -4 -80 -5 -99 -3 l-35 3 -3
84 c-2 46 0 91 3 99 5 12 22 14 103 9 92 -6 98 -8 125 -37z"/>
<path d="M16320 2865 l0 -255 25 0 25 0 0 255 0 255 -25 0 -25 0 0 -255z"/>
<path d="M16800 2864 l0 -255 31 3 c29 3 43 20 159 191 69 103 132 193 138
199 9 9 12 -35 12 -191 l0 -202 26 3 27 3 1 250 1 250 -31 3 c-29 3 -35 -4
-164 -198 -73 -110 -137 -200 -141 -200 -5 0 -9 90 -9 200 l0 200 -25 0 -25 0
0 -256z"/>
<path d="M18060 3096 c0 -22 4 -26 28 -26 35 0 51 -17 92 -100 18 -36 42 -73
53 -82 l22 -17 -37 -33 c-20 -18 -64 -77 -97 -130 l-60 -98 37 0 c37 0 39 2
95 95 60 97 105 145 137 145 26 0 30 -19 30 -136 l0 -104 25 0 25 0 0 115 c0
98 2 117 17 122 31 12 68 -23 138 -129 66 -101 72 -107 104 -108 27 0 32 3 27
17 -16 42 -122 197 -150 219 l-31 25 22 18 c11 10 37 50 57 89 36 72 57 92 95
92 16 0 21 6 21 25 0 22 -4 25 -32 25 -57 0 -88 -29 -138 -125 -39 -77 -50
-91 -78 -99 -47 -13 -52 -1 -52 122 l0 102 -25 0 c-25 0 -25 -1 -26 -92 -1
-141 -3 -145 -51 -132 -28 8 -39 21 -76 94 -53 105 -68 121 -126 127 -44 5
-46 5 -46 -21z"/>
<path d="M19050 3114 c0 -3 45 -89 101 -191 95 -173 100 -185 89 -213 -19 -45
-46 -64 -91 -63 -32 2 -39 -1 -39 -16 0 -22 19 -31 61 -31 44 0 64 14 92 65
29 52 217 442 217 451 0 3 -12 4 -27 2 -25 -3 -34 -18 -98 -155 -38 -84 -74
-153 -80 -153 -5 0 -46 69 -90 153 -71 134 -84 152 -108 155 -15 2 -27 0 -27
-4z"/>
<path d="M19850 2866 l0 -256 30 0 30 0 0 105 0 105 103 0 c87 0 110 4 147 23
98 49 107 185 17 251 -25 19 -46 21 -178 24 l-149 4 0 -256z m274 190 c61 -25
71 -109 19 -158 -22 -20 -36 -23 -129 -26 l-104 -4 0 94 c0 52 3 98 7 101 12
13 173 7 207 -7z"/>
<path d="M20630 2865 l0 -255 30 0 30 0 0 120 0 120 140 0 140 0 0 -120 0
-120 30 0 30 0 0 256 0 255 -27 -3 -28 -3 -3 -102 -3 -103 -139 0 -140 0 0
105 0 105 -30 0 -30 0 0 -255z"/>
<path d="M21501 2878 c-51 -134 -96 -249 -99 -256 -3 -10 4 -13 28 -10 31 3
34 7 58 76 l26 72 115 0 116 0 28 -75 c27 -73 29 -75 62 -75 l35 0 -19 48
c-10 26 -47 115 -80 197 -116 283 -104 260 -142 263 l-35 3 -93 -243z m149
139 c0 -5 16 -51 35 -103 19 -51 35 -96 35 -99 0 -3 -40 -5 -90 -5 -55 0 -90
4 -90 10 0 6 13 45 29 88 17 42 33 91 37 107 4 17 9 34 12 39 5 10 32 -21 32
-37z"/>
<path d="M22287 3113 c-4 -3 -7 -101 -7 -217 0 -116 -4 -217 -9 -224 -4 -7
-21 -16 -37 -21 -19 -5 -30 -15 -32 -29 -3 -20 1 -22 41 -22 89 0 105 46 106
318 l1 152 95 0 95 0 0 -230 0 -230 30 0 30 0 0 255 0 255 -153 0 c-85 0 -157
-3 -160 -7z"/>
</g>
</svg>
