<?xml version="1.0" standalone="no"?>
<!DOCTYPE svg PUBLIC "-//W3C//DTD SVG 20010904//EN"
 "http://www.w3.org/TR/2001/REC-SVG-20010904/DTD/svg10.dtd">
<svg version="1.0" xmlns="http://www.w3.org/2000/svg"
 width="499.000000pt" height="114.000000pt" viewBox="0 0 499.000000 114.000000"
 preserveAspectRatio="xMidYMid meet">

<g transform="translate(0.000000,114.000000) scale(0.100000,-0.100000)"
fill="#000000" stroke="none">
<path d="M1449 1126 c-89 -31 -168 -106 -214 -201 -28 -56 -43 -152 -29 -182
5 -12 10 6 14 57 7 94 37 158 105 226 74 74 125 98 207 99 69 0 112 -18 72
-30 -119 -38 -247 -143 -298 -243 -45 -89 -47 -201 -5 -243 23 -23 84 -25 134
-5 83 35 203 179 235 283 24 77 25 121 6 168 l-15 35 28 0 c16 0 39 -9 52 -19
21 -17 24 -28 24 -88 0 -101 -42 -181 -160 -298 -103 -104 -185 -152 -239
-140 -74 15 -108 17 -119 5 -22 -22 22 -42 76 -36 48 5 49 5 63 -30 8 -20 14
-48 12 -62 -3 -24 -14 -31 -122 -69 -148 -52 -212 -84 -276 -134 l-49 -39
-473 -2 -473 -3 468 -2 c257 -2 467 -7 467 -11 -1 -4 -7 -18 -15 -32 -38 -67
-5 -130 68 -130 94 0 204 49 289 128 l48 45 1122 -9 c618 -5 1214 -7 1326 -4
l202 5 38 49 c94 126 257 138 496 39 237 -98 317 -113 401 -74 40 18 77 51 57
51 -6 0 -14 -5 -17 -10 -14 -23 -86 -50 -132 -50 -59 0 -104 14 -280 84 -160
63 -237 81 -331 74 -84 -6 -136 -32 -195 -98 l-45 -50 -191 0 -191 0 0 34 0
34 49 -1 c40 -2 54 3 75 22 34 32 43 83 22 127 -19 41 -50 55 -117 52 l-49 -2
0 -133 0 -133 -1119 0 -1119 0 29 53 c15 28 34 75 40 104 10 45 15 52 42 57
51 10 210 91 265 135 48 39 52 40 46 17 -3 -13 -1 -34 6 -45 19 -37 68 -25
127 32 18 17 44 31 58 33 22 2 24 0 19 -21 -7 -29 11 -65 34 -65 10 0 58 41
107 91 109 110 174 161 106 84 -56 -64 -73 -99 -69 -138 5 -50 35 -47 97 9 47
42 51 44 46 21 -4 -14 -2 -35 5 -46 19 -37 68 -25 127 32 18 17 45 32 60 33
20 2 48 24 98 79 68 73 95 91 95 61 0 -8 -36 -60 -80 -115 -78 -98 -79 -101
-52 -101 22 0 38 14 86 75 95 122 176 186 176 141 0 -8 -28 -51 -62 -96 -100
-130 -94 -120 -65 -120 20 0 39 18 90 83 76 97 129 147 157 147 31 0 24 -16
-35 -80 -61 -66 -79 -102 -70 -137 9 -36 48 -29 100 18 l44 40 3 -38 c4 -52
35 -56 89 -13 l39 31 0 -25 c0 -48 46 -46 99 3 26 24 31 26 31 11 0 -68 39
-65 116 9 52 49 59 59 45 68 -14 9 -13 15 12 51 33 50 73 80 88 65 13 -13 -12
-66 -47 -98 -26 -24 -51 -103 -41 -128 12 -32 48 -18 113 45 35 33 64 66 64
72 -1 6 -20 -10 -43 -37 -39 -44 -93 -87 -109 -87 -25 0 2 52 71 137 69 86 76
98 58 101 -11 2 -26 -3 -33 -12 -10 -15 -12 -14 -17 5 -5 19 -11 21 -38 15
-42 -8 -97 -51 -105 -81 -3 -13 -1 -32 5 -42 8 -17 2 -28 -42 -71 -29 -29 -58
-52 -65 -52 -24 0 -14 66 15 94 19 19 23 30 16 37 -8 8 -16 5 -28 -9 -55 -66
-114 -122 -129 -122 -30 0 -16 33 57 129 39 53 74 99 75 103 2 5 -8 8 -22 8
-14 0 -26 -5 -26 -12 0 -9 -3 -9 -12 0 -39 39 -133 -9 -223 -115 -65 -76 -118
-119 -134 -108 -19 11 -12 24 49 90 58 63 78 100 66 130 -9 25 -58 17 -98 -15
l-37 -30 -3 27 c-4 41 -41 42 -88 4 l-39 -31 -3 28 c-2 21 -9 28 -29 30 -21 2
-38 -11 -93 -72 -37 -42 -76 -76 -85 -76 -15 0 -14 7 11 58 73 146 -57 125
-191 -31 -71 -83 -122 -124 -141 -112 -15 9 9 48 89 148 71 87 71 87 42 87
-35 0 -93 -45 -206 -159 -43 -45 -84 -80 -90 -78 -23 8 -16 55 14 90 17 19 31
37 31 41 0 15 -28 4 -50 -19 -13 -14 -31 -25 -40 -25 -14 0 -12 9 12 58 41 82
25 111 -49 89 -27 -8 -66 -40 -133 -108 -100 -101 -172 -148 -293 -194 -37
-14 -69 -25 -71 -25 -2 0 -6 21 -9 47 -2 27 -8 55 -11 65 -6 12 0 18 26 23 18
4 75 27 126 51 71 35 109 61 161 112 80 79 111 146 111 243 0 105 -41 155
-131 162 -24 2 -61 11 -81 20 -44 20 -109 21 -159 3z m211 -66 c28 -68 -15
-191 -113 -323 -86 -117 -179 -166 -229 -120 -58 52 33 250 176 380 46 43 126
93 147 93 4 0 12 -14 19 -30z m310 -354 c0 -32 -21 -67 -45 -76 -19 -7 -25
-17 -25 -39 0 -47 -95 -120 -122 -93 -28 28 122 222 170 222 12 0 22 -6 22
-14z m530 -7 c0 -31 -18 -59 -46 -69 -18 -7 -24 -17 -24 -39 0 -20 -10 -38
-34 -59 -62 -54 -107 -53 -86 2 13 35 92 138 126 165 35 27 64 27 64 0z m690
7 c0 -33 -161 -216 -190 -216 -19 0 -23 31 -8 63 45 94 198 212 198 153z m513
-307 c40 -49 8 -129 -52 -129 -56 0 -61 7 -61 76 0 49 4 65 18 74 24 15 74 4
95 -21z m-2339 -81 c-15 -29 -42 -72 -61 -95 l-34 -43 -137 0 -137 1 30 24
c56 46 307 163 353 165 8 0 3 -18 -14 -52z m-114 -153 c0 -11 -127 -99 -175
-121 -54 -26 -114 -31 -133 -12 -23 23 -12 78 26 121 13 15 34 17 149 17 73 0
133 -2 133 -5z"/>
<path d="M2570 350 c0 -82 3 -100 15 -100 12 0 15 16 15 85 l0 85 55 0 55 0 0
-85 c0 -70 3 -85 15 -85 13 0 15 15 13 98 l-3 97 -82 3 -83 3 0 -101z"/>
<path d="M2803 440 c-13 -5 -23 -14 -23 -21 0 -7 7 -8 18 -4 53 23 92 12 92
-24 0 -11 -14 -21 -45 -29 -50 -13 -81 -49 -70 -82 10 -31 41 -43 77 -31 20 7
35 8 43 1 8 -6 18 -5 30 4 17 12 21 12 31 -2 10 -13 13 -13 32 6 18 18 22 34
22 92 l0 70 50 0 50 0 0 -85 c0 -69 3 -85 15 -85 12 0 15 18 15 100 l0 100
-75 0 -75 0 0 -77 c0 -43 -4 -83 -8 -89 -4 -6 -22 -11 -39 -11 l-33 0 0 78 c0
67 -3 80 -19 89 -23 12 -58 12 -88 0z m85 -122 c-4 -38 -40 -63 -70 -47 -29
16 -22 48 15 64 50 22 59 19 55 -17z"/>
<path d="M3190 350 c0 -55 4 -100 9 -100 5 0 37 34 70 76 l61 77 0 -77 c0 -61
3 -76 15 -76 12 0 15 18 15 100 0 55 -4 100 -9 100 -5 0 -38 -36 -73 -80 l-63
-80 -3 80 c-4 116 -22 100 -22 -20z"/>
<path d="M3382 438 c3 -7 19 -14 36 -16 l32 -3 0 -85 c0 -68 3 -84 15 -84 12
0 15 16 15 84 l0 85 33 3 c64 6 31 23 -51 26 -65 2 -83 0 -80 -10z"/>
<path d="M3804 436 c-25 -19 -12 -31 16 -16 33 18 70 5 70 -24 0 -19 -7 -26
-32 -31 -53 -11 -78 -32 -78 -65 0 -41 38 -66 79 -52 16 6 33 7 37 2 12 -10
54 6 54 21 0 6 -7 9 -15 5 -12 -4 -15 6 -15 64 0 57 -4 74 -20 90 -23 23 -68
26 -96 6z m86 -119 c0 -27 -6 -36 -26 -45 -48 -22 -84 17 -46 50 43 38 72 36
72 -5z"/>
<path d="M3064 116 c16 -13 17 -17 3 -36 l-15 -22 -5 28 c-3 20 -4 15 -5 -16
l-1 -45 24 29 23 29 5 -29 c3 -25 4 -24 6 9 1 39 -12 60 -39 65 -11 2 -9 -2 4
-12z"/>
<path d="M1452 90 c10 -16 10 -24 0 -40 -14 -22 -3 -27 17 -7 11 10 14 10 18
0 3 -7 9 -13 14 -13 6 0 5 8 -1 20 -8 14 -8 26 0 40 6 12 7 20 1 20 -5 0 -11
-6 -14 -12 -4 -10 -7 -10 -18 0 -20 19 -31 14 -17 -8z"/>
<path d="M1560 107 c0 -4 7 -21 15 -37 11 -22 12 -30 2 -33 -9 -4 -9 -6 0 -6
7 -1 22 17 33 39 11 22 16 40 11 40 -5 0 -13 -10 -17 -22 l-6 -21 -19 24 c-10
13 -19 20 -19 16z"/>
<path d="M1680 85 c0 -14 -5 -34 -12 -45 -7 -10 -8 -23 -4 -27 5 -4 11 -2 13
5 6 16 50 16 57 0 4 -7 4 -2 1 12 -2 14 -5 37 -5 53 0 22 -4 27 -25 27 -20 0
-25 -5 -25 -25z m40 -15 c0 -20 -5 -30 -15 -30 -10 0 -15 10 -15 30 0 20 5 30
15 30 10 0 15 -10 15 -30z"/>
<path d="M1800 96 c-20 -25 -8 -61 21 -64 36 -4 55 21 41 53 -13 28 -43 33
-62 11z m45 -27 c0 -15 -7 -25 -18 -27 -22 -4 -33 24 -17 43 18 21 35 13 35
-16z"/>
<path d="M1922 90 c10 -16 10 -24 0 -40 -7 -11 -8 -20 -3 -20 6 0 15 8 20 18
10 16 10 16 11 0 0 -10 5 -18 10 -18 6 0 10 8 10 18 1 15 2 15 15 -2 8 -11 18
-17 21 -13 4 4 1 13 -5 21 -9 11 -10 20 -1 35 13 26 2 28 -16 4 -13 -17 -13
-17 -14 0 0 9 -4 17 -10 17 -5 0 -10 -8 -10 -17 -1 -17 -1 -17 -11 0 -5 9 -14
17 -20 17 -5 0 -4 -9 3 -20z"/>
<path d="M2060 70 c0 -40 0 -40 38 -39 30 2 32 3 10 6 -32 5 -38 23 -8 23 11
0 20 5 20 10 0 6 -9 10 -20 10 -30 0 -24 18 8 23 22 3 20 4 -10 6 -38 1 -38 1
-38 -39z"/>
<path d="M2191 96 c-7 -8 -11 -25 -9 -38 2 -18 9 -23 32 -23 17 0 31 6 34 15
5 13 3 13 -11 1 -19 -15 -47 -8 -47 12 0 8 7 20 15 27 12 10 18 10 32 -1 14
-12 16 -12 11 1 -6 21 -42 24 -57 6z"/>
<path d="M2303 103 c12 -3 17 -15 17 -39 0 -19 5 -34 10 -34 6 0 10 15 10 34
0 19 6 37 13 39 6 3 -6 5 -28 5 -22 0 -32 -2 -22 -5z"/>
<path d="M2410 71 c0 -39 2 -41 29 -41 32 0 41 13 31 50 -4 18 -14 26 -33 28
-25 3 -27 1 -27 -37z m45 19 c3 -5 -1 -10 -9 -10 -9 0 -16 5 -16 10 0 6 4 10
9 10 6 0 13 -4 16 -10z m5 -40 c0 -5 -7 -10 -15 -10 -8 0 -15 5 -15 10 0 6 7
10 15 10 8 0 15 -4 15 -10z"/>
<path d="M2530 70 c0 -39 1 -40 33 -39 30 2 30 2 5 6 -35 5 -37 23 -2 23 14 0
23 4 19 10 -3 6 -15 10 -26 10 -29 0 -23 18 9 23 25 4 25 4 -5 6 -32 1 -33 0
-33 -39z"/>
<path d="M2652 70 c0 -25 2 -37 5 -27 6 22 40 22 46 0 3 -10 5 2 5 27 0 25 -2
37 -5 28 -2 -10 -13 -18 -23 -18 -10 0 -21 8 -23 18 -3 9 -5 -3 -5 -28z"/>
<path d="M2770 70 c0 -22 5 -40 10 -40 6 0 10 7 10 15 0 8 7 15 15 15 8 0 15
-7 15 -15 0 -8 5 -15 10 -15 6 0 10 18 10 40 0 22 -4 40 -10 40 -5 0 -10 -7
-10 -15 0 -8 -7 -15 -15 -15 -8 0 -15 7 -15 15 0 8 -4 15 -10 15 -5 0 -10 -18
-10 -40z"/>
<path d="M2890 70 l0 -40 45 2 45 1 0 39 c0 21 -4 38 -10 38 -5 0 -10 -11 -10
-24 0 -22 -2 -23 -25 -13 -14 7 -25 18 -25 25 0 6 -4 12 -10 12 -5 0 -10 -18
-10 -40z m50 -20 c0 -5 -7 -10 -15 -10 -8 0 -15 5 -15 10 0 6 7 10 15 10 8 0
15 -4 15 -10z"/>
<path d="M3240 89 c9 -15 8 -24 -1 -35 -6 -8 -9 -17 -5 -21 3 -4 13 2 21 13
13 17 14 17 15 2 0 -10 5 -18 10 -18 6 0 10 8 10 18 1 16 1 16 11 0 5 -10 14
-18 20 -18 5 0 4 9 -3 20 -10 16 -10 24 0 40 7 11 8 20 3 20 -6 0 -15 -8 -20
-17 -10 -17 -10 -17 -11 0 0 9 -4 17 -10 17 -5 0 -10 -8 -10 -17 -1 -17 -1
-17 -14 0 -18 24 -29 22 -16 -4z"/>
<path d="M3385 95 c5 -11 9 -30 9 -42 1 -31 13 -29 31 7 18 35 20 65 1 31
l-13 -24 -18 24 c-14 19 -16 20 -10 4z"/>
<path d="M3490 71 c0 -23 5 -41 10 -41 6 0 10 6 10 14 0 8 10 16 23 18 14 2
22 10 22 23 0 15 -8 21 -32 23 -32 3 -33 2 -33 -37z m50 14 c0 -8 -7 -15 -15
-15 -8 0 -15 7 -15 15 0 8 7 15 15 15 8 0 15 -7 15 -15z"/>
<path d="M3610 70 c0 -22 5 -40 10 -40 6 0 10 7 10 15 0 8 7 15 15 15 8 0 15
-7 15 -15 0 -8 5 -15 10 -15 6 0 10 18 10 40 0 22 -4 40 -10 40 -5 0 -10 -7
-10 -15 0 -8 -7 -15 -15 -15 -8 0 -15 7 -15 15 0 8 -4 15 -10 15 -5 0 -10 -18
-10 -40z"/>
<path d="M3744 75 c-18 -45 -18 -48 5 -33 15 9 23 9 35 -1 9 -8 16 -11 16 -7
0 13 -29 76 -35 76 -3 0 -13 -16 -21 -35z m23 -7 c-3 -8 -6 -5 -6 6 -1 11 2
17 5 13 3 -3 4 -12 1 -19z"/>
<path d="M3858 70 c-2 -25 0 -39 7 -37 5 2 11 18 13 35 4 44 20 40 25 -5 l4
-38 1 43 c2 38 0 42 -22 42 -21 0 -24 -6 -28 -40z"/>
</g>
</svg>
